{
	"asset":{
		"generator":"Khronos glTF Blender I/O v3.6.27",
		"version":"2.0"
	},
	"extensionsUsed":[
		"KHR_materials_specular",
		"KHR_materials_ior",
		"KHR_materials_emissive_strength"
	],
	"scene":0,
	"scenes":[
		{
			"name":"Scene",
			"nodes":[
				0,
				1,
				2,
				3,
				4,
				5,
				6,
				7,
				8,
				9
			]
		}
	],
	"nodes":[
		{
			"mesh":0,
			"name":"Circle.004",
			"translation":[
				0,
				1.8211445808410645,
				0
			]
		},
		{
			"mesh":1,
			"name":"Icosphere.005",
			"translation":[
				-0.0037026756908744574,
				1.8174855709075928,
				0.002822622423991561
			]
		},
		{
			"mesh":2,
			"name":"Icosphere.006",
			"rotation":[
				0,
				-0.6473821997642517,
				0,
				0.7621656060218811
			],
			"translation":[
				0.3142286539077759,
				1.7906548976898193,
				0.034751564264297485
			]
		},
		{
			"mesh":3,
			"name":"Icosphere.007",
			"rotation":[
				0.014157830737531185,
				-0.9686803221702576,
				-0.013195846229791641,
				0.2475561946630478
			],
			"translation":[
				0.16243970394134521,
				2.1244959831237793,
				-0.2439214438199997
			]
		},
		{
			"mesh":4,
			"name":"Icosphere.008",
			"rotation":[
				-0.3341514766216278,
				-0.0900682881474495,
				-0.9324787259101868,
				0.10350794345140457
			],
			"translation":[
				-0.21282681822776794,
				1.5506985187530518,
				-0.22857914865016937
			]
		},
		{
			"mesh":5,
			"name":"Icosphere.009",
			"rotation":[
				-0.9714422225952148,
				0.0490170419216156,
				-0.23116406798362732,
				0.021459421142935753
			],
			"translation":[
				-0.28861501812934875,
				1.7781462669372559,
				0.017968283966183662
			]
		},
		{
			"mesh":6,
			"name":"Torus.001",
			"rotation":[
				0.7071068286895752,
				0,
				0,
				0.7071068286895752
			],
			"translation":[
				0,
				1.7211445569992065,
				0
			]
		},
		{
			"mesh":7,
			"name":"Circle.007",
			"translation":[
				0,
				1.8211445808410645,
				0
			]
		},
		{
			"mesh":8,
			"name":"Circle.001"
		},
		{
			"mesh":9,
			"name":"Circle.002",
			"rotation":[
				0,
				0.7071067094802856,
				0,
				0.7071068286895752
			]
		}
	],
	"animations":[
		{
			"channels":[
				{
					"sampler":0,
					"target":{
						"node":0,
						"path":"rotation"
					}
				},
				{
					"sampler":1,
					"target":{
						"node":1,
						"path":"translation"
					}
				},
				{
					"sampler":2,
					"target":{
						"node":1,
						"path":"rotation"
					}
				},
				{
					"sampler":3,
					"target":{
						"node":2,
						"path":"translation"
					}
				},
				{
					"sampler":4,
					"target":{
						"node":2,
						"path":"rotation"
					}
				},
				{
					"sampler":5,
					"target":{
						"node":3,
						"path":"translation"
					}
				},
				{
					"sampler":6,
					"target":{
						"node":3,
						"path":"rotation"
					}
				},
				{
					"sampler":7,
					"target":{
						"node":4,
						"path":"translation"
					}
				},
				{
					"sampler":8,
					"target":{
						"node":4,
						"path":"rotation"
					}
				},
				{
					"sampler":9,
					"target":{
						"node":5,
						"path":"translation"
					}
				},
				{
					"sampler":10,
					"target":{
						"node":5,
						"path":"rotation"
					}
				},
				{
					"sampler":11,
					"target":{
						"node":6,
						"path":"rotation"
					}
				},
				{
					"sampler":12,
					"target":{
						"node":7,
						"path":"rotation"
					}
				}
			],
			"name":"Scene",
			"samplers":[
				{
					"input":50,
					"interpolation":"LINEAR",
					"output":51
				},
				{
					"input":50,
					"interpolation":"LINEAR",
					"output":52
				},
				{
					"input":50,
					"interpolation":"LINEAR",
					"output":53
				},
				{
					"input":50,
					"interpolation":"LINEAR",
					"output":54
				},
				{
					"input":50,
					"interpolation":"LINEAR",
					"output":55
				},
				{
					"input":50,
					"interpolation":"LINEAR",
					"output":56
				},
				{
					"input":50,
					"interpolation":"LINEAR",
					"output":57
				},
				{
					"input":50,
					"interpolation":"LINEAR",
					"output":58
				},
				{
					"input":50,
					"interpolation":"LINEAR",
					"output":59
				},
				{
					"input":50,
					"interpolation":"LINEAR",
					"output":60
				},
				{
					"input":50,
					"interpolation":"LINEAR",
					"output":61
				},
				{
					"input":50,
					"interpolation":"LINEAR",
					"output":62
				},
				{
					"input":50,
					"interpolation":"LINEAR",
					"output":63
				}
			]
		}
	],
	"materials":[
		{
			"doubleSided":true,
			"extensions":{
				"KHR_materials_specular":{
					"specularColorFactor":[
						2.371357614441398,
						2.371357614441398,
						2.371357614441398
					]
				},
				"KHR_materials_ior":{
					"ior":1.4500000476837158
				}
			},
			"name":"ring",
			"pbrMetallicRoughness":{
				"baseColorFactor":[
					1,
					0.5906184315681458,
					0.17144130170345306,
					1
				],
				"roughnessFactor":0.10000000149011612
			}
		},
		{
			"doubleSided":true,
			"emissiveFactor":[
				1,
				0.03745760663799252,
				0.046391559407452126
			],
			"extensions":{
				"KHR_materials_emissive_strength":{
					"emissiveStrength":1.551949381828308
				},
				"KHR_materials_specular":{
					"specularColorFactor":[
						2.371357614441398,
						2.371357614441398,
						2.371357614441398
					]
				},
				"KHR_materials_ior":{
					"ior":1.4500000476837158
				}
			},
			"name":"emiss",
			"pbrMetallicRoughness":{
				"baseColorFactor":[
					0.5173159837722778,
					0.02921479195356369,
					0.021621068939566612,
					1
				],
				"roughnessFactor":0.06692913174629211
			}
		},
		{
			"doubleSided":true,
			"extensions":{
				"KHR_materials_specular":{
					"specularColorFactor":[
						0.711407312601205,
						0.711407312601205,
						0.711407312601205
					]
				},
				"KHR_materials_ior":{
					"ior":1.4500000476837158
				}
			},
			"name":"ring2",
			"pbrMetallicRoughness":{
				"baseColorFactor":[
					1,
					0.3467036783695221,
					0,
					1
				],
				"roughnessFactor":0.699999988079071
			}
		},
		{
			"doubleSided":true,
			"extensions":{
				"KHR_materials_specular":{
					"specularColorFactor":[
						0.474271529955476,
						0.474271529955476,
						0.474271529955476
					]
				},
				"KHR_materials_ior":{
					"ior":1.4500000476837158
				}
			},
			"name":"Easy Stone",
			"pbrMetallicRoughness":{
				"baseColorFactor":[
					0.4125419855117798,
					0.4005778729915619,
					0.3712877631187439,
					1
				],
				"metallicFactor":0,
				"roughnessFactor":0.699999988079071
			}
		},
		{
			"doubleSided":true,
			"extensions":{
				"KHR_materials_specular":{
					"specularColorFactor":[
						0.474271529955476,
						0.474271529955476,
						0.474271529955476
					]
				},
				"KHR_materials_ior":{
					"ior":1.4500000476837158
				}
			},
			"name":"Easy Stone 2",
			"pbrMetallicRoughness":{
				"baseColorFactor":[
					0.21952597796916962,
					0.21333833038806915,
					0.19757337868213654,
					1
				],
				"metallicFactor":0,
				"roughnessFactor":0.699999988079071
			}
		}
	],
	"meshes":[
		{
			"name":"Circle.003",
			"primitives":[
				{
					"attributes":{
						"POSITION":0,
						"NORMAL":1,
						"TEXCOORD_0":2
					},
					"indices":3,
					"material":0
				}
			]
		},
		{
			"name":"Icosphere.005",
			"primitives":[
				{
					"attributes":{
						"POSITION":4,
						"NORMAL":5,
						"TEXCOORD_0":6,
						"TEXCOORD_1":7
					},
					"indices":8,
					"material":1
				}
			]
		},
		{
			"name":"Icosphere.006",
			"primitives":[
				{
					"attributes":{
						"POSITION":9,
						"NORMAL":10,
						"TEXCOORD_0":11
					},
					"indices":12,
					"material":1
				}
			]
		},
		{
			"name":"Icosphere.007",
			"primitives":[
				{
					"attributes":{
						"POSITION":13,
						"NORMAL":14,
						"TEXCOORD_0":15
					},
					"indices":16,
					"material":1
				}
			]
		},
		{
			"name":"Icosphere.008",
			"primitives":[
				{
					"attributes":{
						"POSITION":17,
						"NORMAL":18,
						"TEXCOORD_0":19
					},
					"indices":12,
					"material":1
				}
			]
		},
		{
			"name":"Icosphere.009",
			"primitives":[
				{
					"attributes":{
						"POSITION":20,
						"NORMAL":21,
						"TEXCOORD_0":22
					},
					"indices":23,
					"material":1
				}
			]
		},
		{
			"name":"Torus.001",
			"primitives":[
				{
					"attributes":{
						"POSITION":24,
						"NORMAL":25,
						"TEXCOORD_0":26
					},
					"indices":27,
					"material":2
				}
			]
		},
		{
			"name":"Circle.005",
			"primitives":[
				{
					"attributes":{
						"POSITION":28,
						"NORMAL":29,
						"TEXCOORD_0":30
					},
					"indices":31,
					"material":0
				}
			]
		},
		{
			"name":"Circle.001",
			"primitives":[
				{
					"attributes":{
						"POSITION":32,
						"NORMAL":33,
						"TEXCOORD_0":34,
						"TEXCOORD_1":35
					},
					"indices":36,
					"material":3
				},
				{
					"attributes":{
						"POSITION":37,
						"NORMAL":38,
						"TEXCOORD_0":39,
						"TEXCOORD_1":40
					},
					"indices":41,
					"material":4
				}
			]
		},
		{
			"name":"Circle.001",
			"primitives":[
				{
					"attributes":{
						"POSITION":42,
						"NORMAL":43,
						"TEXCOORD_0":44,
						"TEXCOORD_1":45
					},
					"indices":36,
					"material":3
				},
				{
					"attributes":{
						"POSITION":46,
						"NORMAL":47,
						"TEXCOORD_0":48,
						"TEXCOORD_1":49
					},
					"indices":41,
					"material":4
				}
			]
		}
	],
	"accessors":[
		{
			"bufferView":0,
			"componentType":5126,
			"count":256,
			"max":[
				0.5907183289527893,
				0.019312024116516113,
				0.5907183885574341
			],
			"min":[
				-0.5907183289527893,
				-0.01931178569793701,
				-0.5907183289527893
			],
			"type":"VEC3"
		},
		{
			"bufferView":1,
			"componentType":5126,
			"count":256,
			"type":"VEC3"
		},
		{
			"bufferView":2,
			"componentType":5126,
			"count":256,
			"type":"VEC2"
		},
		{
			"bufferView":3,
			"componentType":5123,
			"count":768,
			"type":"SCALAR"
		},
		{
			"bufferView":4,
			"componentType":5126,
			"count":240,
			"max":[
				0.18578879535198212,
				0.4567957818508148,
				0.18055753409862518
			],
			"min":[
				-0.1928940862417221,
				-0.4602915644645691,
				-0.19683513045310974
			],
			"type":"VEC3"
		},
		{
			"bufferView":5,
			"componentType":5126,
			"count":240,
			"type":"VEC3"
		},
		{
			"bufferView":6,
			"componentType":5126,
			"count":240,
			"type":"VEC2"
		},
		{
			"bufferView":7,
			"componentType":5126,
			"count":240,
			"type":"VEC2"
		},
		{
			"bufferView":8,
			"componentType":5123,
			"count":240,
			"type":"SCALAR"
		},
		{
			"bufferView":9,
			"componentType":5126,
			"count":240,
			"max":[
				0.09389828890562057,
				0.1793138086795807,
				0.07506463676691055
			],
			"min":[
				-0.09973642230033875,
				-0.18586619198322296,
				-0.08638260513544083
			],
			"type":"VEC3"
		},
		{
			"bufferView":10,
			"componentType":5126,
			"count":240,
			"type":"VEC3"
		},
		{
			"bufferView":11,
			"componentType":5126,
			"count":240,
			"type":"VEC2"
		},
		{
			"bufferView":12,
			"componentType":5123,
			"count":240,
			"type":"SCALAR"
		},
		{
			"bufferView":13,
			"componentType":5126,
			"count":240,
			"max":[
				0.050067272037267685,
				0.10535275936126709,
				0.062126316130161285
			],
			"min":[
				-0.057731807231903076,
				-0.11933392286300659,
				-0.07069797068834305
			],
			"type":"VEC3"
		},
		{
			"bufferView":14,
			"componentType":5126,
			"count":240,
			"type":"VEC3"
		},
		{
			"bufferView":15,
			"componentType":5126,
			"count":240,
			"type":"VEC2"
		},
		{
			"bufferView":16,
			"componentType":5123,
			"count":240,
			"type":"SCALAR"
		},
		{
			"bufferView":17,
			"componentType":5126,
			"count":240,
			"max":[
				0.07694300264120102,
				0.14695656299591064,
				0.06151936948299408
			],
			"min":[
				-0.08174688369035721,
				-0.15232020616531372,
				-0.07079184800386429
			],
			"type":"VEC3"
		},
		{
			"bufferView":18,
			"componentType":5126,
			"count":240,
			"type":"VEC3"
		},
		{
			"bufferView":19,
			"componentType":5126,
			"count":240,
			"type":"VEC2"
		},
		{
			"bufferView":20,
			"componentType":5126,
			"count":240,
			"max":[
				0.042415693402290344,
				0.08132883906364441,
				0.03554769605398178
			],
			"min":[
				-0.04886671155691147,
				-0.09395989775657654,
				-0.04112858697772026
			],
			"type":"VEC3"
		},
		{
			"bufferView":21,
			"componentType":5126,
			"count":240,
			"type":"VEC3"
		},
		{
			"bufferView":22,
			"componentType":5126,
			"count":240,
			"type":"VEC2"
		},
		{
			"bufferView":23,
			"componentType":5123,
			"count":240,
			"type":"SCALAR"
		},
		{
			"bufferView":24,
			"componentType":5126,
			"count":1550,
			"max":[
				0.6881405711174011,
				0.06768746674060822,
				0.5528627038002014
			],
			"min":[
				-0.6881405711174011,
				-0.06768746674060822,
				-0.19347243010997772
			],
			"type":"VEC3"
		},
		{
			"bufferView":25,
			"componentType":5126,
			"count":1550,
			"type":"VEC3"
		},
		{
			"bufferView":26,
			"componentType":5126,
			"count":1550,
			"type":"VEC2"
		},
		{
			"bufferView":27,
			"componentType":5123,
			"count":6336,
			"type":"SCALAR"
		},
		{
			"bufferView":28,
			"componentType":5126,
			"count":256,
			"max":[
				0.019311457872390747,
				0.8355589509010315,
				0.8355596661567688
			],
			"min":[
				-0.019312888383865356,
				-0.835560142993927,
				-0.8355595469474792
			],
			"type":"VEC3"
		},
		{
			"bufferView":29,
			"componentType":5126,
			"count":256,
			"type":"VEC3"
		},
		{
			"bufferView":30,
			"componentType":5126,
			"count":256,
			"type":"VEC2"
		},
		{
			"bufferView":31,
			"componentType":5123,
			"count":768,
			"type":"SCALAR"
		},
		{
			"bufferView":32,
			"componentType":5126,
			"count":1188,
			"max":[
				1,
				0.8950926661491394,
				1
			],
			"min":[
				-1,
				0,
				-1
			],
			"type":"VEC3"
		},
		{
			"bufferView":33,
			"componentType":5126,
			"count":1188,
			"type":"VEC3"
		},
		{
			"bufferView":34,
			"componentType":5126,
			"count":1188,
			"type":"VEC2"
		},
		{
			"bufferView":35,
			"componentType":5126,
			"count":1188,
			"type":"VEC2"
		},
		{
			"bufferView":36,
			"componentType":5123,
			"count":2604,
			"type":"SCALAR"
		},
		{
			"bufferView":37,
			"componentType":5126,
			"count":1283,
			"max":[
				0.963650107383728,
				0.9123432040214539,
				0.907337486743927
			],
			"min":[
				-0.963650107383728,
				0.03917858377099037,
				-0.907337486743927
			],
			"type":"VEC3"
		},
		{
			"bufferView":38,
			"componentType":5126,
			"count":1283,
			"type":"VEC3"
		},
		{
			"bufferView":39,
			"componentType":5126,
			"count":1283,
			"type":"VEC2"
		},
		{
			"bufferView":40,
			"componentType":5126,
			"count":1283,
			"type":"VEC2"
		},
		{
			"bufferView":41,
			"componentType":5123,
			"count":2928,
			"type":"SCALAR"
		},
		{
			"bufferView":42,
			"componentType":5126,
			"count":1188,
			"max":[
				1,
				0.8950926661491394,
				1
			],
			"min":[
				-1,
				0,
				-1
			],
			"type":"VEC3"
		},
		{
			"bufferView":43,
			"componentType":5126,
			"count":1188,
			"type":"VEC3"
		},
		{
			"bufferView":44,
			"componentType":5126,
			"count":1188,
			"type":"VEC2"
		},
		{
			"bufferView":45,
			"componentType":5126,
			"count":1188,
			"type":"VEC2"
		},
		{
			"bufferView":46,
			"componentType":5126,
			"count":1283,
			"max":[
				0.963650107383728,
				0.9123432040214539,
				0.907337486743927
			],
			"min":[
				-0.963650107383728,
				0.03917858377099037,
				-0.907337486743927
			],
			"type":"VEC3"
		},
		{
			"bufferView":47,
			"componentType":5126,
			"count":1283,
			"type":"VEC3"
		},
		{
			"bufferView":48,
			"componentType":5126,
			"count":1283,
			"type":"VEC2"
		},
		{
			"bufferView":49,
			"componentType":5126,
			"count":1283,
			"type":"VEC2"
		},
		{
			"bufferView":50,
			"componentType":5126,
			"count":90,
			"max":[
				3
			],
			"min":[
				0.03333333333333333
			],
			"type":"SCALAR"
		},
		{
			"bufferView":51,
			"componentType":5126,
			"count":90,
			"type":"VEC4"
		},
		{
			"bufferView":52,
			"componentType":5126,
			"count":90,
			"type":"VEC3"
		},
		{
			"bufferView":53,
			"componentType":5126,
			"count":90,
			"type":"VEC4"
		},
		{
			"bufferView":54,
			"componentType":5126,
			"count":90,
			"type":"VEC3"
		},
		{
			"bufferView":55,
			"componentType":5126,
			"count":90,
			"type":"VEC4"
		},
		{
			"bufferView":56,
			"componentType":5126,
			"count":90,
			"type":"VEC3"
		},
		{
			"bufferView":57,
			"componentType":5126,
			"count":90,
			"type":"VEC4"
		},
		{
			"bufferView":58,
			"componentType":5126,
			"count":90,
			"type":"VEC3"
		},
		{
			"bufferView":59,
			"componentType":5126,
			"count":90,
			"type":"VEC4"
		},
		{
			"bufferView":60,
			"componentType":5126,
			"count":90,
			"type":"VEC3"
		},
		{
			"bufferView":61,
			"componentType":5126,
			"count":90,
			"type":"VEC4"
		},
		{
			"bufferView":62,
			"componentType":5126,
			"count":90,
			"type":"VEC4"
		},
		{
			"bufferView":63,
			"componentType":5126,
			"count":90,
			"type":"VEC4"
		}
	],
	"bufferViews":[
		{
			"buffer":0,
			"byteLength":3072,
			"byteOffset":0,
			"target":34962
		},
		{
			"buffer":0,
			"byteLength":3072,
			"byteOffset":3072,
			"target":34962
		},
		{
			"buffer":0,
			"byteLength":2048,
			"byteOffset":6144,
			"target":34962
		},
		{
			"buffer":0,
			"byteLength":1536,
			"byteOffset":8192,
			"target":34963
		},
		{
			"buffer":0,
			"byteLength":2880,
			"byteOffset":9728,
			"target":34962
		},
		{
			"buffer":0,
			"byteLength":2880,
			"byteOffset":12608,
			"target":34962
		},
		{
			"buffer":0,
			"byteLength":1920,
			"byteOffset":15488,
			"target":34962
		},
		{
			"buffer":0,
			"byteLength":1920,
			"byteOffset":17408,
			"target":34962
		},
		{
			"buffer":0,
			"byteLength":480,
			"byteOffset":19328,
			"target":34963
		},
		{
			"buffer":0,
			"byteLength":2880,
			"byteOffset":19808,
			"target":34962
		},
		{
			"buffer":0,
			"byteLength":2880,
			"byteOffset":22688,
			"target":34962
		},
		{
			"buffer":0,
			"byteLength":1920,
			"byteOffset":25568,
			"target":34962
		},
		{
			"buffer":0,
			"byteLength":480,
			"byteOffset":27488,
			"target":34963
		},
		{
			"buffer":0,
			"byteLength":2880,
			"byteOffset":27968,
			"target":34962
		},
		{
			"buffer":0,
			"byteLength":2880,
			"byteOffset":30848,
			"target":34962
		},
		{
			"buffer":0,
			"byteLength":1920,
			"byteOffset":33728,
			"target":34962
		},
		{
			"buffer":0,
			"byteLength":480,
			"byteOffset":35648,
			"target":34963
		},
		{
			"buffer":0,
			"byteLength":2880,
			"byteOffset":36128,
			"target":34962
		},
		{
			"buffer":0,
			"byteLength":2880,
			"byteOffset":39008,
			"target":34962
		},
		{
			"buffer":0,
			"byteLength":1920,
			"byteOffset":41888,
			"target":34962
		},
		{
			"buffer":0,
			"byteLength":2880,
			"byteOffset":43808,
			"target":34962
		},
		{
			"buffer":0,
			"byteLength":2880,
			"byteOffset":46688,
			"target":34962
		},
		{
			"buffer":0,
			"byteLength":1920,
			"byteOffset":49568,
			"target":34962
		},
		{
			"buffer":0,
			"byteLength":480,
			"byteOffset":51488,
			"target":34963
		},
		{
			"buffer":0,
			"byteLength":18600,
			"byteOffset":51968,
			"target":34962
		},
		{
			"buffer":0,
			"byteLength":18600,
			"byteOffset":70568,
			"target":34962
		},
		{
			"buffer":0,
			"byteLength":12400,
			"byteOffset":89168,
			"target":34962
		},
		{
			"buffer":0,
			"byteLength":12672,
			"byteOffset":101568,
			"target":34963
		},
		{
			"buffer":0,
			"byteLength":3072,
			"byteOffset":114240,
			"target":34962
		},
		{
			"buffer":0,
			"byteLength":3072,
			"byteOffset":117312,
			"target":34962
		},
		{
			"buffer":0,
			"byteLength":2048,
			"byteOffset":120384,
			"target":34962
		},
		{
			"buffer":0,
			"byteLength":1536,
			"byteOffset":122432,
			"target":34963
		},
		{
			"buffer":0,
			"byteLength":14256,
			"byteOffset":123968,
			"target":34962
		},
		{
			"buffer":0,
			"byteLength":14256,
			"byteOffset":138224,
			"target":34962
		},
		{
			"buffer":0,
			"byteLength":9504,
			"byteOffset":152480,
			"target":34962
		},
		{
			"buffer":0,
			"byteLength":9504,
			"byteOffset":161984,
			"target":34962
		},
		{
			"buffer":0,
			"byteLength":5208,
			"byteOffset":171488,
			"target":34963
		},
		{
			"buffer":0,
			"byteLength":15396,
			"byteOffset":176696,
			"target":34962
		},
		{
			"buffer":0,
			"byteLength":15396,
			"byteOffset":192092,
			"target":34962
		},
		{
			"buffer":0,
			"byteLength":10264,
			"byteOffset":207488,
			"target":34962
		},
		{
			"buffer":0,
			"byteLength":10264,
			"byteOffset":217752,
			"target":34962
		},
		{
			"buffer":0,
			"byteLength":5856,
			"byteOffset":228016,
			"target":34963
		},
		{
			"buffer":0,
			"byteLength":14256,
			"byteOffset":233872,
			"target":34962
		},
		{
			"buffer":0,
			"byteLength":14256,
			"byteOffset":248128,
			"target":34962
		},
		{
			"buffer":0,
			"byteLength":9504,
			"byteOffset":262384,
			"target":34962
		},
		{
			"buffer":0,
			"byteLength":9504,
			"byteOffset":271888,
			"target":34962
		},
		{
			"buffer":0,
			"byteLength":15396,
			"byteOffset":281392,
			"target":34962
		},
		{
			"buffer":0,
			"byteLength":15396,
			"byteOffset":296788,
			"target":34962
		},
		{
			"buffer":0,
			"byteLength":10264,
			"byteOffset":312184,
			"target":34962
		},
		{
			"buffer":0,
			"byteLength":10264,
			"byteOffset":322448,
			"target":34962
		},
		{
			"buffer":0,
			"byteLength":360,
			"byteOffset":332712
		},
		{
			"buffer":0,
			"byteLength":1440,
			"byteOffset":333072
		},
		{
			"buffer":0,
			"byteLength":1080,
			"byteOffset":334512
		},
		{
			"buffer":0,
			"byteLength":1440,
			"byteOffset":335592
		},
		{
			"buffer":0,
			"byteLength":1080,
			"byteOffset":337032
		},
		{
			"buffer":0,
			"byteLength":1440,
			"byteOffset":338112
		},
		{
			"buffer":0,
			"byteLength":1080,
			"byteOffset":339552
		},
		{
			"buffer":0,
			"byteLength":1440,
			"byteOffset":340632
		},
		{
			"buffer":0,
			"byteLength":1080,
			"byteOffset":342072
		},
		{
			"buffer":0,
			"byteLength":1440,
			"byteOffset":343152
		},
		{
			"buffer":0,
			"byteLength":1080,
			"byteOffset":344592
		},
		{
			"buffer":0,
			"byteLength":1440,
			"byteOffset":345672
		},
		{
			"buffer":0,
			"byteLength":1440,
			"byteOffset":347112
		},
		{
			"buffer":0,
			"byteLength":1440,
			"byteOffset":348552
		}
	],
	"buffers":[
		{
			"byteLength":349992,
			"uri":"data:application/octet-stream;base64,"
		}
	]
}
