{
	"asset":{
		"generator":"Khronos glTF Blender I/O v4.0.43",
		"version":"2.0"
	},
	"extensionsUsed":[
		"KHR_materials_specular",
		"KHR_materials_ior"
	],
	"scene":0,
	"scenes":[
		{
			"name":"Scene",
			"nodes":[
				0
			]
		}
	],
	"nodes":[
		{
			"mesh":0,
			"name":"Cube.006"
		}
	],
	"materials":[
		{
			"doubleSided":true,
			"extensions":{
				"KHR_materials_specular":{
					"specularFactor":0.18897640705108643
				},
				"KHR_materials_ior":{
					"ior":1.4500000476837158
				}
			},
			"name":"Skin",
			"pbrMetallicRoughness":{
				"baseColorFactor":[
					0.4512324035167694,
					0.29769694805145264,
					0.22620727121829987,
					1
				],
				"metallicFactor":0,
				"roughnessFactor":0.5527864098548889
			}
		},
		{
			"doubleSided":true,
			"name":"color-knight",
			"pbrMetallicRoughness":{
				"baseColorFactor":[
					0.7992379069328308,
					0.10461162030696869,
					0.6723945736885071,
					1
				],
				"roughnessFactor":0.5
			}
		},
		{
			"doubleSided":true,
			"name":"metal",
			"pbrMetallicRoughness":{
				"baseColorFactor":[
					0.7742686867713928,
					0.7742686867713928,
					0.7742686867713928,
					1
				],
				"roughnessFactor":0.20000000298023224
			}
		},
		{
			"doubleSided":true,
			"name":"color-pants",
			"pbrMetallicRoughness":{
				"baseColorFactor":[
					0.7992379069328308,
					0.10461162030696869,
					0.6723945736885071,
					1
				],
				"metallicFactor":0
			}
		},
		{
			"doubleSided":true,
			"name":"helmet",
			"pbrMetallicRoughness":{
				"baseColorFactor":[
					0,
					0,
					0,
					1
				],
				"metallicFactor":0,
				"roughnessFactor":0.5
			}
		},
		{
			"doubleSided":true,
			"name":"meta2",
			"pbrMetallicRoughness":{
				"baseColorFactor":[
					0.41648972034454346,
					0.41648972034454346,
					0.41648972034454346,
					1
				],
				"roughnessFactor":0.30000001192092896
			}
		}
	],
	"meshes":[
		{
			"name":"Cube.006",
			"primitives":[
				{
					"attributes":{
						"POSITION":0,
						"NORMAL":1,
						"TEXCOORD_0":2
					},
					"indices":3,
					"material":0
				},
				{
					"attributes":{
						"POSITION":4,
						"NORMAL":5,
						"TEXCOORD_0":6
					},
					"indices":7,
					"material":1
				},
				{
					"attributes":{
						"POSITION":8,
						"NORMAL":9,
						"TEXCOORD_0":10
					},
					"indices":11,
					"material":2
				},
				{
					"attributes":{
						"POSITION":12,
						"NORMAL":13,
						"TEXCOORD_0":14
					},
					"indices":15,
					"material":3
				},
				{
					"attributes":{
						"POSITION":16,
						"NORMAL":17,
						"TEXCOORD_0":18
					},
					"indices":19,
					"material":4
				},
				{
					"attributes":{
						"POSITION":20,
						"NORMAL":21,
						"TEXCOORD_0":22
					},
					"indices":23,
					"material":5
				}
			]
		}
	],
	"accessors":[
		{
			"bufferView":0,
			"componentType":5126,
			"count":314,
			"max":[
				0.16680121421813965,
				1.8509601354599,
				0.4633920192718506
			],
			"min":[
				-0.17887933552265167,
				0.9560503959655762,
				-0.4633920192718506
			],
			"type":"VEC3"
		},
		{
			"bufferView":1,
			"componentType":5126,
			"count":314,
			"type":"VEC3"
		},
		{
			"bufferView":2,
			"componentType":5126,
			"count":314,
			"type":"VEC2"
		},
		{
			"bufferView":3,
			"componentType":5123,
			"count":1116,
			"type":"SCALAR"
		},
		{
			"bufferView":4,
			"componentType":5126,
			"count":440,
			"max":[
				0.2843509614467621,
				1.9842917919158936,
				0.48478394746780396
			],
			"min":[
				-0.3301020860671997,
				0.24583573639392853,
				-0.2205943614244461
			],
			"type":"VEC3"
		},
		{
			"bufferView":5,
			"componentType":5126,
			"count":440,
			"type":"VEC3"
		},
		{
			"bufferView":6,
			"componentType":5126,
			"count":440,
			"type":"VEC2"
		},
		{
			"bufferView":7,
			"componentType":5123,
			"count":1512,
			"type":"SCALAR"
		},
		{
			"bufferView":8,
			"componentType":5126,
			"count":280,
			"max":[
				0.1434929370880127,
				1.6251838207244873,
				0.4769369959831238
			],
			"min":[
				-0.2941657304763794,
				0.3159352242946625,
				-0.4917633831501007
			],
			"type":"VEC3"
		},
		{
			"bufferView":9,
			"componentType":5126,
			"count":280,
			"type":"VEC3"
		},
		{
			"bufferView":10,
			"componentType":5126,
			"count":280,
			"type":"VEC2"
		},
		{
			"bufferView":11,
			"componentType":5123,
			"count":966,
			"type":"SCALAR"
		},
		{
			"bufferView":12,
			"componentType":5126,
			"count":266,
			"max":[
				0.21722106635570526,
				1.0698847770690918,
				0.4631865918636322
			],
			"min":[
				-0.22974540293216705,
				0.5020759701728821,
				-0.4631865918636322
			],
			"type":"VEC3"
		},
		{
			"bufferView":13,
			"componentType":5126,
			"count":266,
			"type":"VEC3"
		},
		{
			"bufferView":14,
			"componentType":5126,
			"count":266,
			"type":"VEC2"
		},
		{
			"bufferView":15,
			"componentType":5123,
			"count":1104,
			"type":"SCALAR"
		},
		{
			"bufferView":16,
			"componentType":5126,
			"count":30,
			"max":[
				0.1720232516527176,
				1.8509601354599,
				0.15774992108345032
			],
			"min":[
				0.12039614468812943,
				1.528182029724121,
				-0.15774992108345032
			],
			"type":"VEC3"
		},
		{
			"bufferView":17,
			"componentType":5126,
			"count":30,
			"type":"VEC3"
		},
		{
			"bufferView":18,
			"componentType":5126,
			"count":30,
			"type":"VEC2"
		},
		{
			"bufferView":19,
			"componentType":5123,
			"count":96,
			"type":"SCALAR"
		},
		{
			"bufferView":20,
			"componentType":5126,
			"count":3203,
			"max":[
				0.27269744873046875,
				1.9737688302993774,
				0.5192842483520508
			],
			"min":[
				-0.28741514682769775,
				-0.004833254497498274,
				-0.5192842483520508
			],
			"type":"VEC3"
		},
		{
			"bufferView":21,
			"componentType":5126,
			"count":3203,
			"type":"VEC3"
		},
		{
			"bufferView":22,
			"componentType":5126,
			"count":3203,
			"type":"VEC2"
		},
		{
			"bufferView":23,
			"componentType":5123,
			"count":12216,
			"type":"SCALAR"
		}
	],
	"bufferViews":[
		{
			"buffer":0,
			"byteLength":3768,
			"byteOffset":0,
			"target":34962
		},
		{
			"buffer":0,
			"byteLength":3768,
			"byteOffset":3768,
			"target":34962
		},
		{
			"buffer":0,
			"byteLength":2512,
			"byteOffset":7536,
			"target":34962
		},
		{
			"buffer":0,
			"byteLength":2232,
			"byteOffset":10048,
			"target":34963
		},
		{
			"buffer":0,
			"byteLength":5280,
			"byteOffset":12280,
			"target":34962
		},
		{
			"buffer":0,
			"byteLength":5280,
			"byteOffset":17560,
			"target":34962
		},
		{
			"buffer":0,
			"byteLength":3520,
			"byteOffset":22840,
			"target":34962
		},
		{
			"buffer":0,
			"byteLength":3024,
			"byteOffset":26360,
			"target":34963
		},
		{
			"buffer":0,
			"byteLength":3360,
			"byteOffset":29384,
			"target":34962
		},
		{
			"buffer":0,
			"byteLength":3360,
			"byteOffset":32744,
			"target":34962
		},
		{
			"buffer":0,
			"byteLength":2240,
			"byteOffset":36104,
			"target":34962
		},
		{
			"buffer":0,
			"byteLength":1932,
			"byteOffset":38344,
			"target":34963
		},
		{
			"buffer":0,
			"byteLength":3192,
			"byteOffset":40276,
			"target":34962
		},
		{
			"buffer":0,
			"byteLength":3192,
			"byteOffset":43468,
			"target":34962
		},
		{
			"buffer":0,
			"byteLength":2128,
			"byteOffset":46660,
			"target":34962
		},
		{
			"buffer":0,
			"byteLength":2208,
			"byteOffset":48788,
			"target":34963
		},
		{
			"buffer":0,
			"byteLength":360,
			"byteOffset":50996,
			"target":34962
		},
		{
			"buffer":0,
			"byteLength":360,
			"byteOffset":51356,
			"target":34962
		},
		{
			"buffer":0,
			"byteLength":240,
			"byteOffset":51716,
			"target":34962
		},
		{
			"buffer":0,
			"byteLength":192,
			"byteOffset":51956,
			"target":34963
		},
		{
			"buffer":0,
			"byteLength":38436,
			"byteOffset":52148,
			"target":34962
		},
		{
			"buffer":0,
			"byteLength":38436,
			"byteOffset":90584,
			"target":34962
		},
		{
			"buffer":0,
			"byteLength":25624,
			"byteOffset":129020,
			"target":34962
		},
		{
			"buffer":0,
			"byteLength":24432,
			"byteOffset":154644,
			"target":34963
		}
	],
	"buffers":[
		{
			"byteLength":179076,
			"uri":"knight.bin"
		}
	]
}
