{
	"asset":{
		"generator":"Khronos glTF Blender I/O v4.0.43",
		"version":"2.0"
	},
	"extensionsUsed":[
		"KHR_materials_specular",
		"KHR_materials_ior"
	],
	"scene":0,
	"scenes":[
		{
			"name":"Scene",
			"nodes":[
				0,
				1,
				2,
				3,
				4,
				5
			]
		}
	],
	"nodes":[
		{
			"mesh":0,
			"name":"Cube.006"
		},
		{
			"mesh":1,
			"name":"Cube.008"
		},
		{
			"mesh":2,
			"name":"Cube.009"
		},
		{
			"mesh":3,
			"name":"Cube.010"
		},
		{
			"mesh":4,
			"name":"Cube.011"
		},
		{
			"mesh":5,
			"name":"Cube.012"
		}
	],
	"materials":[
		{
			"doubleSided":true,
			"name":"metal",
			"pbrMetallicRoughness":{
				"baseColorFactor":[
					0.7742686867713928,
					0.7742686867713928,
					0.7742686867713928,
					1
				],
				"roughnessFactor":0.20000000298023224
			}
		},
		{
			"doubleSided":true,
			"extensions":{
				"KHR_materials_specular":{
					"specularFactor":0.18897640705108643
				},
				"KHR_materials_ior":{
					"ior":1.4500000476837158
				}
			},
			"name":"Skin",
			"pbrMetallicRoughness":{
				"baseColorFactor":[
					0.4512324035167694,
					0.29769694805145264,
					0.22620727121829987,
					1
				],
				"metallicFactor":0,
				"roughnessFactor":0.5527864098548889
			}
		},
		{
			"doubleSided":true,
			"name":"color-knight",
			"pbrMetallicRoughness":{
				"baseColorFactor":[
					1,
					0,
					0,
					1
				],
				"roughnessFactor":0.20000000298023224
			}
		},
		{
			"doubleSided":true,
			"name":"color-pants",
			"pbrMetallicRoughness":{
				"baseColorFactor":[
					1,
					0,
					0,
					1
				],
				"metallicFactor":0
			}
		},
		{
			"doubleSided":true,
			"name":"helmet",
			"pbrMetallicRoughness":{
				"baseColorFactor":[
					0,
					0,
					0,
					1
				],
				"metallicFactor":0,
				"roughnessFactor":0.5
			}
		},
		{
			"doubleSided":true,
			"name":"meta2",
			"pbrMetallicRoughness":{
				"baseColorFactor":[
					0.41648972034454346,
					0.41648972034454346,
					0.41648972034454346,
					1
				],
				"roughnessFactor":0.30000001192092896
			}
		}
	],
	"meshes":[
		{
			"name":"Cube.006",
			"primitives":[
				{
					"attributes":{
						"POSITION":0,
						"NORMAL":1,
						"TEXCOORD_0":2
					},
					"indices":3,
					"material":0
				}
			]
		},
		{
			"name":"Cube.008",
			"primitives":[
				{
					"attributes":{
						"POSITION":4,
						"NORMAL":5,
						"TEXCOORD_0":6
					},
					"indices":7,
					"material":1
				}
			]
		},
		{
			"name":"Cube.010",
			"primitives":[
				{
					"attributes":{
						"POSITION":8,
						"NORMAL":9,
						"TEXCOORD_0":10
					},
					"indices":11,
					"material":2
				}
			]
		},
		{
			"name":"Cube.011",
			"primitives":[
				{
					"attributes":{
						"POSITION":12,
						"NORMAL":13,
						"TEXCOORD_0":14
					},
					"indices":15,
					"material":3
				}
			]
		},
		{
			"name":"Cube.012",
			"primitives":[
				{
					"attributes":{
						"POSITION":16,
						"NORMAL":17,
						"TEXCOORD_0":18
					},
					"indices":19,
					"material":4
				}
			]
		},
		{
			"name":"Cube.013",
			"primitives":[
				{
					"attributes":{
						"POSITION":20,
						"NORMAL":21,
						"TEXCOORD_0":22
					},
					"indices":23,
					"material":5
				}
			]
		}
	],
	"accessors":[
		{
			"bufferView":0,
			"componentType":5126,
			"count":172,
			"max":[
				0.1487663835287094,
				1.7019556760787964,
				0.5883567333221436
			],
			"min":[
				-0.286411851644516,
				0.6786962747573853,
				-0.483020156621933
			],
			"type":"VEC3"
		},
		{
			"bufferView":1,
			"componentType":5126,
			"count":172,
			"type":"VEC3"
		},
		{
			"bufferView":2,
			"componentType":5126,
			"count":172,
			"type":"VEC2"
		},
		{
			"bufferView":3,
			"componentType":5123,
			"count":870,
			"type":"SCALAR"
		},
		{
			"bufferView":4,
			"componentType":5126,
			"count":262,
			"max":[
				0.16680121421813965,
				1.8509601354599,
				0.4633920192718506
			],
			"min":[
				-0.17887933552265167,
				0.9560503959655762,
				-0.4633920192718506
			],
			"type":"VEC3"
		},
		{
			"bufferView":5,
			"componentType":5126,
			"count":262,
			"type":"VEC3"
		},
		{
			"bufferView":6,
			"componentType":5126,
			"count":262,
			"type":"VEC2"
		},
		{
			"bufferView":7,
			"componentType":5123,
			"count":948,
			"type":"SCALAR"
		},
		{
			"bufferView":8,
			"componentType":5126,
			"count":424,
			"max":[
				0.2843509614467621,
				1.9842917919158936,
				0.6010451912879944
			],
			"min":[
				-0.3301263749599457,
				0.24583573639392853,
				-0.2205943614244461
			],
			"type":"VEC3"
		},
		{
			"bufferView":9,
			"componentType":5126,
			"count":424,
			"type":"VEC3"
		},
		{
			"bufferView":10,
			"componentType":5126,
			"count":424,
			"type":"VEC2"
		},
		{
			"bufferView":11,
			"componentType":5123,
			"count":1512,
			"type":"SCALAR"
		},
		{
			"bufferView":12,
			"componentType":5126,
			"count":362,
			"max":[
				0.21722106635570526,
				1.0698847770690918,
				0.4631865918636322
			],
			"min":[
				-0.22974540293216705,
				0.5020759701728821,
				-0.4631865918636322
			],
			"type":"VEC3"
		},
		{
			"bufferView":13,
			"componentType":5126,
			"count":362,
			"type":"VEC3"
		},
		{
			"bufferView":14,
			"componentType":5126,
			"count":362,
			"type":"VEC2"
		},
		{
			"bufferView":15,
			"componentType":5123,
			"count":1584,
			"type":"SCALAR"
		},
		{
			"bufferView":16,
			"componentType":5126,
			"count":30,
			"max":[
				0.1720232516527176,
				1.8509601354599,
				0.15774992108345032
			],
			"min":[
				0.12039614468812943,
				1.528182029724121,
				-0.15774992108345032
			],
			"type":"VEC3"
		},
		{
			"bufferView":17,
			"componentType":5126,
			"count":30,
			"type":"VEC3"
		},
		{
			"bufferView":18,
			"componentType":5126,
			"count":30,
			"type":"VEC2"
		},
		{
			"bufferView":19,
			"componentType":5123,
			"count":96,
			"type":"SCALAR"
		},
		{
			"bufferView":20,
			"componentType":5126,
			"count":3021,
			"max":[
				0.27269744873046875,
				1.9737688302993774,
				0.559286892414093
			],
			"min":[
				-0.2812937796115875,
				-0.004833254497498274,
				-0.5192842483520508
			],
			"type":"VEC3"
		},
		{
			"bufferView":21,
			"componentType":5126,
			"count":3021,
			"type":"VEC3"
		},
		{
			"bufferView":22,
			"componentType":5126,
			"count":3021,
			"type":"VEC2"
		},
		{
			"bufferView":23,
			"componentType":5123,
			"count":11640,
			"type":"SCALAR"
		}
	],
	"bufferViews":[
		{
			"buffer":0,
			"byteLength":2064,
			"byteOffset":0,
			"target":34962
		},
		{
			"buffer":0,
			"byteLength":2064,
			"byteOffset":2064,
			"target":34962
		},
		{
			"buffer":0,
			"byteLength":1376,
			"byteOffset":4128,
			"target":34962
		},
		{
			"buffer":0,
			"byteLength":1740,
			"byteOffset":5504,
			"target":34963
		},
		{
			"buffer":0,
			"byteLength":3144,
			"byteOffset":7244,
			"target":34962
		},
		{
			"buffer":0,
			"byteLength":3144,
			"byteOffset":10388,
			"target":34962
		},
		{
			"buffer":0,
			"byteLength":2096,
			"byteOffset":13532,
			"target":34962
		},
		{
			"buffer":0,
			"byteLength":1896,
			"byteOffset":15628,
			"target":34963
		},
		{
			"buffer":0,
			"byteLength":5088,
			"byteOffset":17524,
			"target":34962
		},
		{
			"buffer":0,
			"byteLength":5088,
			"byteOffset":22612,
			"target":34962
		},
		{
			"buffer":0,
			"byteLength":3392,
			"byteOffset":27700,
			"target":34962
		},
		{
			"buffer":0,
			"byteLength":3024,
			"byteOffset":31092,
			"target":34963
		},
		{
			"buffer":0,
			"byteLength":4344,
			"byteOffset":34116,
			"target":34962
		},
		{
			"buffer":0,
			"byteLength":4344,
			"byteOffset":38460,
			"target":34962
		},
		{
			"buffer":0,
			"byteLength":2896,
			"byteOffset":42804,
			"target":34962
		},
		{
			"buffer":0,
			"byteLength":3168,
			"byteOffset":45700,
			"target":34963
		},
		{
			"buffer":0,
			"byteLength":360,
			"byteOffset":48868,
			"target":34962
		},
		{
			"buffer":0,
			"byteLength":360,
			"byteOffset":49228,
			"target":34962
		},
		{
			"buffer":0,
			"byteLength":240,
			"byteOffset":49588,
			"target":34962
		},
		{
			"buffer":0,
			"byteLength":192,
			"byteOffset":49828,
			"target":34963
		},
		{
			"buffer":0,
			"byteLength":36252,
			"byteOffset":50020,
			"target":34962
		},
		{
			"buffer":0,
			"byteLength":36252,
			"byteOffset":86272,
			"target":34962
		},
		{
			"buffer":0,
			"byteLength":24168,
			"byteOffset":122524,
			"target":34962
		},
		{
			"buffer":0,
			"byteLength":23280,
			"byteOffset":146692,
			"target":34963
		}
	],
	"buffers":[
		{
			"byteLength":169972,
			"uri":"knight.bin"
		}
	]
}
