{
	"asset":{
		"generator":"Khronos glTF Blender I/O v3.6.27",
		"version":"2.0"
	},
	"extensionsUsed":[
		"KHR_materials_specular",
		"KHR_materials_ior"
	],
	"scene":0,
	"scenes":[
		{
			"name":"Scene",
			"nodes":[
				0
			]
		}
	],
	"nodes":[
		{
			"mesh":0,
			"name":"Knight",
			"rotation":[
				0.6532815098762512,
				-0.27059805393218994,
				0.27059805393218994,
				0.6532815098762512
			]
		}
	],
	"materials":[
		{
			"doubleSided":true,
			"extensions":{
				"KHR_materials_specular":{
					"specularColorFactor":[
						2.371357614441398,
						2.371357614441398,
						2.371357614441398
					]
				},
				"KHR_materials_ior":{
					"ior":1.4500000476837158
				}
			},
			"name":"blue-knight",
			"pbrMetallicRoughness":{
				"baseColorFactor":[
					0.15077364444732666,
					0.2276298552751541,
					0.8000000715255737,
					1
				],
				"roughnessFactor":0.4954545497894287
			}
		},
		{
			"doubleSided":true,
			"name":"helmet",
			"pbrMetallicRoughness":{
				"baseColorFactor":[
					0,
					0,
					0,
					1
				],
				"metallicFactor":0,
				"roughnessFactor":0.5
			}
		},
		{
			"doubleSided":true,
			"name":"metal",
			"pbrMetallicRoughness":{
				"baseColorFactor":[
					0.7742686867713928,
					0.7742686867713928,
					0.7742686867713928,
					1
				],
				"roughnessFactor":0.30000001192092896
			}
		},
		{
			"doubleSided":true,
			"extensions":{
				"KHR_materials_specular":{
					"specularColorFactor":[
						0.22406532090518544,
						0.22406532090518544,
						0.22406532090518544
					]
				},
				"KHR_materials_ior":{
					"ior":1.4500000476837158
				}
			},
			"name":"Skin",
			"pbrMetallicRoughness":{
				"baseColorFactor":[
					0.4512324035167694,
					0.29769694805145264,
					0.22620727121829987,
					1
				],
				"metallicFactor":0,
				"roughnessFactor":0.5527864098548889
			}
		},
		{
			"doubleSided":true,
			"extensions":{
				"KHR_materials_specular":{
					"specularColorFactor":[
						0,
						0,
						0
					]
				},
				"KHR_materials_ior":{
					"ior":1.4500000476837158
				}
			},
			"name":"blue-pants",
			"pbrMetallicRoughness":{
				"baseColorFactor":[
					0.024376308545470238,
					0.04461004585027695,
					0.16263887286186218,
					1
				],
				"metallicFactor":0
			}
		}
	],
	"meshes":[
		{
			"name":"Knight",
			"primitives":[
				{
					"attributes":{
						"POSITION":0,
						"NORMAL":1,
						"TEXCOORD_0":2
					},
					"indices":3,
					"material":0
				},
				{
					"attributes":{
						"POSITION":4,
						"NORMAL":5,
						"TEXCOORD_0":6
					},
					"indices":7,
					"material":1
				},
				{
					"attributes":{
						"POSITION":8,
						"NORMAL":9,
						"TEXCOORD_0":10
					},
					"indices":11,
					"material":2
				},
				{
					"attributes":{
						"POSITION":12,
						"NORMAL":13,
						"TEXCOORD_0":14
					},
					"indices":15,
					"material":3
				},
				{
					"attributes":{
						"POSITION":16,
						"NORMAL":17,
						"TEXCOORD_0":18
					},
					"indices":19,
					"material":4
				}
			]
		}
	],
	"accessors":[
		{
			"bufferView":0,
			"componentType":5126,
			"count":408,
			"max":[
				0.6949149966239929,
				0.54093998670578,
				-0.23728999495506287
			],
			"min":[
				-0.6195189952850342,
				-0.5059559941291809,
				-1.9171069860458374
			],
			"type":"VEC3"
		},
		{
			"bufferView":1,
			"componentType":5126,
			"count":408,
			"type":"VEC3"
		},
		{
			"bufferView":2,
			"componentType":5126,
			"count":408,
			"type":"VEC2"
		},
		{
			"bufferView":3,
			"componentType":5123,
			"count":576,
			"type":"SCALAR"
		},
		{
			"bufferView":4,
			"componentType":5126,
			"count":11,
			"max":[
				0.191103994846344,
				0.06197800114750862,
				-1.5353870391845703
			],
			"min":[
				-0.1473120003938675,
				0.016256000846624374,
				-1.6082960367202759
			],
			"type":"VEC3"
		},
		{
			"bufferView":5,
			"componentType":5126,
			"count":11,
			"type":"VEC3"
		},
		{
			"bufferView":6,
			"componentType":5126,
			"count":11,
			"type":"VEC2"
		},
		{
			"bufferView":7,
			"componentType":5123,
			"count":15,
			"type":"SCALAR"
		},
		{
			"bufferView":8,
			"componentType":5126,
			"count":198,
			"max":[
				0.638372004032135,
				0.4885070025920868,
				-0.258635014295578
			],
			"min":[
				-0.6915245056152344,
				-0.47987100481987,
				-2.5650553703308105
			],
			"type":"VEC3"
		},
		{
			"bufferView":9,
			"componentType":5126,
			"count":198,
			"type":"VEC3"
		},
		{
			"bufferView":10,
			"componentType":5126,
			"count":198,
			"type":"VEC2"
		},
		{
			"bufferView":11,
			"componentType":5123,
			"count":288,
			"type":"SCALAR"
		},
		{
			"bufferView":12,
			"componentType":5126,
			"count":291,
			"max":[
				0.574416995048523,
				0.5185419917106628,
				-0.6364560127258301
			],
			"min":[
				-0.6933979988098145,
				-0.430978000164032,
				-1.3938449621200562
			],
			"type":"VEC3"
		},
		{
			"bufferView":13,
			"componentType":5126,
			"count":291,
			"type":"VEC3"
		},
		{
			"bufferView":14,
			"componentType":5126,
			"count":291,
			"type":"VEC2"
		},
		{
			"bufferView":15,
			"componentType":5123,
			"count":435,
			"type":"SCALAR"
		},
		{
			"bufferView":16,
			"componentType":5126,
			"count":256,
			"max":[
				0.3047829866409302,
				0.050025999546051025,
				0
			],
			"min":[
				-0.26006799936294556,
				-0.54093998670578,
				-0.7140880227088928
			],
			"type":"VEC3"
		},
		{
			"bufferView":17,
			"componentType":5126,
			"count":256,
			"type":"VEC3"
		},
		{
			"bufferView":18,
			"componentType":5126,
			"count":256,
			"type":"VEC2"
		},
		{
			"bufferView":19,
			"componentType":5123,
			"count":372,
			"type":"SCALAR"
		}
	],
	"bufferViews":[
		{
			"buffer":0,
			"byteLength":4896,
			"byteOffset":0,
			"target":34962
		},
		{
			"buffer":0,
			"byteLength":4896,
			"byteOffset":4896,
			"target":34962
		},
		{
			"buffer":0,
			"byteLength":3264,
			"byteOffset":9792,
			"target":34962
		},
		{
			"buffer":0,
			"byteLength":1152,
			"byteOffset":13056,
			"target":34963
		},
		{
			"buffer":0,
			"byteLength":132,
			"byteOffset":14208,
			"target":34962
		},
		{
			"buffer":0,
			"byteLength":132,
			"byteOffset":14340,
			"target":34962
		},
		{
			"buffer":0,
			"byteLength":88,
			"byteOffset":14472,
			"target":34962
		},
		{
			"buffer":0,
			"byteLength":30,
			"byteOffset":14560,
			"target":34963
		},
		{
			"buffer":0,
			"byteLength":2376,
			"byteOffset":14592,
			"target":34962
		},
		{
			"buffer":0,
			"byteLength":2376,
			"byteOffset":16968,
			"target":34962
		},
		{
			"buffer":0,
			"byteLength":1584,
			"byteOffset":19344,
			"target":34962
		},
		{
			"buffer":0,
			"byteLength":576,
			"byteOffset":20928,
			"target":34963
		},
		{
			"buffer":0,
			"byteLength":3492,
			"byteOffset":21504,
			"target":34962
		},
		{
			"buffer":0,
			"byteLength":3492,
			"byteOffset":24996,
			"target":34962
		},
		{
			"buffer":0,
			"byteLength":2328,
			"byteOffset":28488,
			"target":34962
		},
		{
			"buffer":0,
			"byteLength":870,
			"byteOffset":30816,
			"target":34963
		},
		{
			"buffer":0,
			"byteLength":3072,
			"byteOffset":31688,
			"target":34962
		},
		{
			"buffer":0,
			"byteLength":3072,
			"byteOffset":34760,
			"target":34962
		},
		{
			"buffer":0,
			"byteLength":2048,
			"byteOffset":37832,
			"target":34962
		},
		{
			"buffer":0,
			"byteLength":744,
			"byteOffset":39880,
			"target":34963
		}
	],
	"buffers":[
		{
			"byteLength":40624,
			"uri":"data:application/octet-stream;base64,"
		}
	]
}
